<svg xmlns="http://www.w3.org/2000/svg">
  <symbol id="main-logo" viewBox="0 0 107 32">
    <defs>
      <clipPath id="main-logo-clip">
        <rect width="107" height="32" />
      </clipPath>
    </defs>

    <g clip-path="url(#main-logo-clip)">
      <path d="M0 4C0 1.79086 1.79086 0 4 0H103C105.209 0 107 1.79086 107 4V28C107 30.2091 105.209 32 103 32H4C1.79086 32 0 30.2091 0 28V4Z" fill="#F5C518" />
      <path d="M4.65625 10.8182H8.09659L10.4631 16.5852H10.5824L12.9489 10.8182H16.3892V21H13.6847V15.1136H13.6051L11.3381 20.9205H9.70739L7.44034 15.0739H7.3608V21H4.65625V10.8182ZM20.918 21.1392C20.0894 21.1392 19.3801 20.9751 18.7901 20.647C18.2002 20.3156 17.7478 19.8549 17.4329 19.2649C17.118 18.6716 16.9606 17.9839 16.9606 17.2017C16.9606 16.4195 17.118 15.7334 17.4329 15.1435C17.7478 14.5502 18.2002 14.0895 18.7901 13.7614C19.3801 13.4299 20.0894 13.2642 20.918 13.2642C21.7466 13.2642 22.4558 13.4299 23.0458 13.7614C23.6358 14.0895 24.0882 14.5502 24.4031 15.1435C24.7179 15.7334 24.8754 16.4195 24.8754 17.2017C24.8754 17.9839 24.7179 18.6716 24.4031 19.2649C24.0882 19.8549 23.6358 20.3156 23.0458 20.647C22.4558 20.9751 21.7466 21.1392 20.918 21.1392ZM20.9379 19.1108C21.1699 19.1108 21.3704 19.0329 21.5394 18.8771C21.7085 18.7214 21.8394 18.4993 21.9322 18.2109C22.025 17.9226 22.0714 17.5795 22.0714 17.1818C22.0714 16.7808 22.025 16.4377 21.9322 16.1527C21.8394 15.8643 21.7085 15.6423 21.5394 15.4865C21.3704 15.3307 21.1699 15.2528 20.9379 15.2528C20.6926 15.2528 20.4821 15.3307 20.3065 15.4865C20.1308 15.6423 19.9966 15.8643 19.9038 16.1527C19.811 16.4377 19.7646 16.7808 19.7646 17.1818C19.7646 17.5795 19.811 17.9226 19.9038 18.2109C19.9966 18.4993 20.1308 18.7214 20.3065 18.8771C20.4821 19.0329 20.6926 19.1108 20.9379 19.1108ZM32.9526 13.3636L30.3873 21H27.2054L24.6401 13.3636H27.5236L28.7566 18.4148H28.8361L30.0691 13.3636H32.9526ZM33.2331 21V13.3636H35.9775V21H33.2331ZM34.6053 12.5682C34.2341 12.5682 33.9159 12.4455 33.6507 12.2003C33.3856 11.955 33.253 11.66 33.253 11.3153C33.253 10.9706 33.3856 10.6757 33.6507 10.4304C33.9159 10.1851 34.2341 10.0625 34.6053 10.0625C34.9798 10.0625 35.298 10.1851 35.5598 10.4304C35.825 10.6757 35.9576 10.9706 35.9576 11.3153C35.9576 11.66 35.825 11.955 35.5598 12.2003C35.298 12.4455 34.9798 12.5682 34.6053 12.5682ZM40.5348 21.1392C39.7195 21.1392 39.0168 20.9834 38.4268 20.6719C37.8402 20.357 37.3878 19.9062 37.0696 19.3196C36.7547 18.7296 36.5973 18.0237 36.5973 17.2017C36.5973 16.4129 36.7564 15.7235 37.0746 15.1335C37.3928 14.5436 37.8419 14.0845 38.4219 13.7564C39.0019 13.4283 39.6863 13.2642 40.4751 13.2642C41.0518 13.2642 41.5739 13.3537 42.0412 13.5327C42.5085 13.7116 42.9079 13.9718 43.2393 14.3132C43.5708 14.6513 43.826 15.0623 44.005 15.5462C44.1839 16.0301 44.2734 16.5753 44.2734 17.1818V17.8182H37.4524V16.3068H41.7479C41.7446 16.0881 41.6882 15.8958 41.5788 15.7301C41.4728 15.5611 41.3286 15.4302 41.1463 15.3374C40.9673 15.2412 40.7635 15.1932 40.5348 15.1932C40.3127 15.1932 40.1089 15.2412 39.9233 15.3374C39.7377 15.4302 39.5885 15.5594 39.4759 15.7251C39.3665 15.8909 39.3085 16.0848 39.3018 16.3068V17.9375C39.3018 18.1828 39.3532 18.4015 39.456 18.5938C39.5587 18.786 39.7062 18.9368 39.8984 19.0462C40.0907 19.1555 40.3227 19.2102 40.5945 19.2102C40.7834 19.2102 40.9557 19.1837 41.1115 19.1307C41.2706 19.0777 41.4065 19.0014 41.5192 18.902C41.6319 18.7992 41.7147 18.6766 41.7678 18.5341H44.2734C44.1873 19.0644 43.9834 19.5251 43.6619 19.9162C43.3404 20.304 42.9145 20.6056 42.3842 20.821C41.8572 21.0331 41.2408 21.1392 40.5348 21.1392ZM47.1426 21V10.8182H51.5574C52.3329 10.8182 52.9842 10.9226 53.5112 11.1314C54.0415 11.3402 54.4409 11.6352 54.7093 12.0163C54.9811 12.3975 55.117 12.8466 55.117 13.3636C55.117 13.7382 55.0342 14.0795 54.8684 14.3878C54.706 14.696 54.4773 14.9545 54.1824 15.1634C53.8874 15.3688 53.5427 15.5114 53.1483 15.5909V15.6903C53.5858 15.7069 53.9835 15.8179 54.3414 16.0234C54.6994 16.2256 54.9844 16.5057 55.1966 16.8636C55.4087 17.2183 55.5147 17.6359 55.5147 18.1165C55.5147 18.6733 55.3689 19.1688 55.0772 19.603C54.7889 20.0372 54.3779 20.3786 53.8443 20.6271C53.3107 20.8757 52.6743 21 51.9352 21H47.1426ZM49.9068 18.7926H51.1994C51.6634 18.7926 52.0114 18.7064 52.2434 18.5341C52.4754 18.3584 52.5914 18.0999 52.5914 17.7585C52.5914 17.5199 52.5368 17.3177 52.4274 17.152C52.318 16.9863 52.1622 16.8603 51.96 16.7741C51.7612 16.688 51.5209 16.6449 51.2392 16.6449H49.9068V18.7926ZM49.9068 14.9347H51.0403C51.2823 14.9347 51.496 14.8965 51.6816 14.8203C51.8672 14.7441 52.0114 14.6347 52.1142 14.4922C52.2202 14.3464 52.2733 14.169 52.2733 13.9602C52.2733 13.6454 52.1606 13.4051 51.9352 13.2393C51.7098 13.0703 51.4248 12.9858 51.0801 12.9858H49.9068V14.9347ZM56.0339 21V13.3636H58.6987V14.8153H58.7782C58.9174 14.2784 59.1378 13.8857 59.4395 13.6371C59.7444 13.3885 60.1007 13.2642 60.5083 13.2642C60.6277 13.2642 60.7453 13.2741 60.8613 13.294C60.9806 13.3106 61.095 13.3355 61.2044 13.3686V15.7102C61.0685 15.6638 60.9011 15.629 60.7022 15.6058C60.5034 15.5826 60.3327 15.571 60.1902 15.571C59.9217 15.571 59.6797 15.6323 59.4643 15.755C59.2522 15.8743 59.0848 16.0433 58.9622 16.2621C58.8395 16.4775 58.7782 16.7311 58.7782 17.0227V21H56.0339ZM64.8457 21.1392C64.0171 21.1392 63.3078 20.9751 62.7179 20.647C62.1279 20.3156 61.6755 19.8549 61.3606 19.2649C61.0458 18.6716 60.8883 17.9839 60.8883 17.2017C60.8883 16.4195 61.0458 15.7334 61.3606 15.1435C61.6755 14.5502 62.1279 14.0895 62.7179 13.7614C63.3078 13.4299 64.0171 13.2642 64.8457 13.2642C65.6743 13.2642 66.3836 13.4299 66.9735 13.7614C67.5635 14.0895 68.0159 14.5502 68.3308 15.1435C68.6457 15.7334 68.8031 16.4195 68.8031 17.2017C68.8031 17.9839 68.6457 18.6716 68.3308 19.2649C68.0159 19.8549 67.5635 20.3156 66.9735 20.647C66.3836 20.9751 65.6743 21.1392 64.8457 21.1392ZM64.8656 19.1108C65.0976 19.1108 65.2981 19.0329 65.4672 18.8771C65.6362 18.7214 65.7671 18.4993 65.8599 18.2109C65.9527 17.9226 65.9991 17.5795 65.9991 17.1818C65.9991 16.7808 65.9527 16.4377 65.8599 16.1527C65.7671 15.8643 65.6362 15.6423 65.4672 15.4865C65.2981 15.3307 65.0976 15.2528 64.8656 15.2528C64.6203 15.2528 64.4099 15.3307 64.2342 15.4865C64.0585 15.6423 63.9243 15.8643 63.8315 16.1527C63.7387 16.4377 63.6923 16.7808 63.6923 17.1818C63.6923 17.5795 63.7387 17.9226 63.8315 18.2109C63.9243 18.4993 64.0585 18.7214 64.2342 18.8771C64.4099 19.0329 64.6203 19.1108 64.8656 19.1108ZM70.6323 21L68.7232 13.3636H71.4675L72.3425 18.017H72.4022L73.3766 13.3636H76.0414L77.0556 17.9773H77.1152L77.9505 13.3636H80.6948L78.7857 21H75.8226L74.7488 16.9034H74.6692L73.5953 21H70.6323ZM88.0101 15.8494H85.4846C85.4713 15.6937 85.4166 15.5594 85.3205 15.4467C85.2244 15.334 85.1001 15.2479 84.9476 15.1882C84.7985 15.1252 84.6328 15.0938 84.4505 15.0938C84.2151 15.0938 84.013 15.1368 83.8439 15.223C83.6749 15.3092 83.592 15.4318 83.5953 15.5909C83.592 15.7036 83.6401 15.808 83.7395 15.9041C83.8423 16.0002 84.0395 16.0748 84.3311 16.1278L85.8823 16.4062C86.6645 16.5488 87.2462 16.7891 87.6273 17.1271C88.0118 17.4619 88.2057 17.911 88.209 18.4744C88.2057 19.018 88.0433 19.4903 87.7218 19.8913C87.4036 20.2891 86.9677 20.5973 86.4142 20.8161C85.8641 21.0315 85.236 21.1392 84.53 21.1392C83.3633 21.1392 82.4502 20.9006 81.7907 20.4233C81.1344 19.946 80.7682 19.3163 80.6919 18.5341H83.4164C83.4528 18.776 83.5721 18.9633 83.7743 19.0959C83.9798 19.2251 84.2383 19.2898 84.5499 19.2898C84.8018 19.2898 85.0089 19.2467 85.1713 19.1605C85.3371 19.0743 85.4216 18.9517 85.4249 18.7926C85.4216 18.6468 85.3487 18.5308 85.2061 18.4446C85.0669 18.3584 84.8482 18.2888 84.5499 18.2358L83.1976 17.9972C82.4187 17.8613 81.8354 17.6027 81.4476 17.2216C81.0598 16.8404 80.8676 16.3499 80.8709 15.75C80.8676 15.2197 81.0068 14.7706 81.2885 14.4027C81.5736 14.0315 81.9796 13.7498 82.5066 13.5575C83.0369 13.362 83.665 13.2642 84.3908 13.2642C85.4945 13.2642 86.3645 13.4929 87.0009 13.9503C87.6406 14.4077 87.977 15.0407 88.0101 15.8494ZM92.4196 21.1392C91.6042 21.1392 90.9016 20.9834 90.3116 20.6719C89.725 20.357 89.2725 19.9062 88.9544 19.3196C88.6395 18.7296 88.4821 18.0237 88.4821 17.2017C88.4821 16.4129 88.6412 15.7235 88.9593 15.1335C89.2775 14.5436 89.7266 14.0845 90.3066 13.7564C90.8867 13.4283 91.5711 13.2642 92.3599 13.2642C92.9366 13.2642 93.4586 13.3537 93.926 13.5327C94.3933 13.7116 94.7927 13.9718 95.1241 14.3132C95.4556 14.6513 95.7108 15.0623 95.8897 15.5462C96.0687 16.0301 96.1582 16.5753 96.1582 17.1818V17.8182H89.3372V16.3068H93.6326C93.6293 16.0881 93.573 15.8958 93.4636 15.7301C93.3575 15.5611 93.2134 15.4302 93.0311 15.3374C92.8521 15.2412 92.6483 15.1932 92.4196 15.1932C92.1975 15.1932 91.9937 15.2412 91.8081 15.3374C91.6225 15.4302 91.4733 15.5594 91.3606 15.7251C91.2512 15.8909 91.1932 16.0848 91.1866 16.3068V17.9375C91.1866 18.1828 91.238 18.4015 91.3407 18.5938C91.4435 18.786 91.591 18.9368 91.7832 19.0462C91.9754 19.1555 92.2074 19.2102 92.4792 19.2102C92.6681 19.2102 92.8405 19.1837 92.9963 19.1307C93.1554 19.0777 93.2913 19.0014 93.4039 18.902C93.5166 18.7992 93.5995 18.6766 93.6525 18.5341H96.1582C96.072 19.0644 95.8682 19.5251 95.5467 19.9162C95.2252 20.304 94.7993 20.6056 94.269 20.821C93.742 21.0331 93.1255 21.1392 92.4196 21.1392ZM96.7781 21V13.3636H99.4428V14.8153H99.5224C99.6616 14.2784 99.882 13.8857 100.184 13.6371C100.489 13.3885 100.845 13.2642 101.252 13.2642C101.372 13.2642 101.489 13.2741 101.605 13.294C101.725 13.3106 101.839 13.3355 101.949 13.3686V15.7102C101.813 15.6638 101.645 15.629 101.446 15.6058C101.248 15.5826 101.077 15.571 100.934 15.571C100.666 15.571 100.424 15.6323 100.208 15.755C99.9963 15.8743 99.829 16.0433 99.7063 16.2621C99.5837 16.4775 99.5224 16.7311 99.5224 17.0227V21H96.7781Z" fill="#171717" />
    </g>
  </symbol>
</svg>
