<svg xmlns="http://www.w3.org/2000/svg">
  <symbol id="icon-menu" viewBox="0 -960 960 960">
    <path d="M160-240q-17 0-28.5-11.5T120-280q0-17 11.5-28.5T160-320h640q17 0 28.5 11.5T840-280q0 17-11.5 28.5T800-240H160Zm0-200q-17 0-28.5-11.5T120-480q0-17 11.5-28.5T160-520h640q17 0 28.5 11.5T840-480q0 17-11.5 28.5T800-440H160Zm0-200q-17 0-28.5-11.5T120-680q0-17 11.5-28.5T160-720h640q17 0 28.5 11.5T840-680q0 17-11.5 28.5T800-640H160Z" />
  </symbol>

  <symbol id="icon-search" viewBox="0 -960 960 960">
    <path d="M380-320q-109 0-184.5-75.5T120-580q0-109 75.5-184.5T380-840q109 0 184.5 75.5T640-580q0 44-14 83t-38 69l224 224q11 11 11 28t-11 28q-11 11-28 11t-28-11L532-372q-30 24-69 38t-83 14Zm0-80q75 0 127.5-52.5T560-580q0-75-52.5-127.5T380-760q-75 0-127.5 52.5T200-580q0 75 52.5 127.5T380-400Z" />
  </symbol>
  
  <symbol id="icon-close" viewBox="0 -960 960 960">
    <path d="M480-424 284-228q-11 11-28 11t-28-11q-11-11-11-28t11-28l196-196-196-196q-11-11-11-28t11-28q11-11 28-11t28 11l196 196 196-196q11-11 28-11t28 11q11 11 11 28t-11 28L536-480l196 196q11 11 11 28t-11 28q-11 11-28 11t-28-11L480-424Z" />
  </symbol>
  
  <symbol id="icon-favorite" viewBox="0 -960 960 960">
    <path d="M451.5-152q-14.5-5-25.5-16l-69-63q-106-97-191.5-192.5T80-634q0-94 63-157t157-63q53 0 100 22.5t80 61.5q33-39 80-61.5T660-854q94 0 157 63t63 157q0 115-85 211T602-230l-68 62q-11 11-25.5 16t-28.5 5q-14 0-28.5-5ZM442-690q-29-41-62-62.5T300-774q-60 0-100 40t-40 100q0 52 37 110.5T285.5-410q51.5 55 106 103t88.5 79q34-31 88.5-79t106-103Q726-465 763-523.5T800-634q0-60-40-100t-100-40q-47 0-80 21.5T518-690q-7 10-17 15t-21 5q-11 0-21-5t-17-15Zm38 189Z" />
  </symbol>

  <symbol id="icon-arrow-forward" viewBox="0 -960 960 960">
    <path d="M647-440H200q-17 0-28.5-11.5T160-480q0-17 11.5-28.5T200-520h447L451-716q-12-12-11.5-28t12.5-28q12-11 28-11.5t28 11.5l264 264q6 6 8.5 13t2.5 15q0 8-2.5 15t-8.5 13L508-188q-11 11-27.5 11T452-188q-12-12-12-28.5t12-28.5l195-195Z" />
  </symbol>
  
  <symbol id="icon-chevron-forward" viewBox="0 -960 960 960">
    <path d="M579-480 285-774q-15-15-14.5-35.5T286-845q15-15 35.5-15t35.5 15l307 308q12 12 18 27t6 30q0 15-6 30t-18 27L356-115q-15 15-35 14.5T286-116q-15-15-15-35.5t15-35.5l293-293Z" />
  </symbol>
  
  <symbol id="icon-history" viewBox="0 -960 960 960">
    <path d="M480-120q-126 0-223-76.5T131-392q-4-15 6-27.5t27-14.5q16-2 29 6t18 24q24 90 99 147t170 57q117 0 198.5-81.5T760-480q0-117-81.5-198.5T480-760q-69 0-129 32t-101 88h70q17 0 28.5 11.5T360-600q0 17-11.5 28.5T320-560H160q-17 0-28.5-11.5T120-600v-160q0-17 11.5-28.5T160-800q17 0 28.5 11.5T200-760v54q51-64 124.5-99T480-840q75 0 140.5 28.5t114 77q48.5 48.5 77 114T840-480q0 75-28.5 140.5t-77 114q-48.5 48.5-114 77T480-120Zm40-376 100 100q11 11 11 28t-11 28q-11 11-28 11t-28-11L452-452q-6-6-9-13.5t-3-15.5v-159q0-17 11.5-28.5T480-680q17 0 28.5 11.5T520-640v144Z" />
  </symbol>
</svg>
